{
  "asset": {
    "copyright": "CC-BY 4.0 Model by PixelMannen https://opengameart.org/content/fox-and-shiba and @tomkranis https://sketchfab.com/3d-models/low-poly-fox-by-pixelmannen-animated-371dea88d7e04a76af5763f2a36866bc and @AsoboStudio with @scurest https://github.com/KhronosGroup/glTF-Sample-Models/pull/150#issuecomment-406300118",
    "version": "2.0",
    "generator": "gltfeditor.com"
  },
  "buffers": [
    {
      "uri": "data:application/octet-stream;base64,",
      "byteLength": 76032
    }
  ],
  "bufferViews": [
    {
      "buffer": 0,
      "byteOffset": 0,
      "byteLength": 20736,
      "byteStride": 12,
      "target": 34962
    },
    {
      "buffer": 0,
      "byteOffset": 20736,
      "byteLength": 27648,
      "byteStride": 16,
      "target": 34962
    },
    {
      "buffer": 0,
      "byteOffset": 48384,
      "byteLength": 27648,
      "byteStride": 16,
      "target": 34962
    }
  ],
  "accessors": [
    {
      "bufferView": 0,
      "byteOffset": 0,
      "componentType": 5126,
      "normalized": false,
      "count": 1728,
      "min": [
        -12.592718124389648,
        -0.12174476683139801,
        -88.09500122070312
      ],
      "max": [
        12.592718124389648,
        78.90718841552734,
        66.62486267089844
      ],
      "type": "VEC3"
    },
    {
      "bufferView": 1,
      "byteOffset": 0,
      "componentType": 5126,
      "normalized": false,
      "count": 1728,
      "min": [
        0.02044299989938736,
        0.01976200006902218
      ],
      "max": [
        0.9830359816551208,
        0.9849969744682312
      ],
      "type": "VEC2"
    },
    {
      "bufferView": 1,
      "byteOffset": 8,
      "componentType": 5123,
      "normalized": false,
      "count": 1728,
      "min": [
        2,
        0,
        0,
        0
      ],
      "max": [
        23,
        23,
        21,
        10
      ],
      "type": "VEC4"
    },
    {
      "bufferView": 2,
      "byteOffset": 0,
      "componentType": 5126,
      "normalized": false,
      "count": 1728,
      "min": [
        0.5,
        0,
        0,
        0
      ],
      "max": [
        1,
        0.5,
        0.14980700612068176,
        0.07318683713674545
      ],
      "type": "VEC4"
    }
  ],
  "scene": 0,
  "scenes": [
    {
      "nodes": [
        24,
        25
      ],
      "name": "Fox"
    }
  ],
  "nodes": [
    {
      "name": "b_Head_05",
      "matrix": [
        0.4720461964607239,
        -0.6311272978782654,
        0.615508496761322,
        0,
        0.7561930418014526,
        0.6487663984298706,
        0.08528906106948853,
        0,
        -0.4531494975090027,
        0.42518287897109985,
        0.7835018038749695,
        0,
        13.376960754394531,
        0,
        0,
        1
      ]
    },
    {
      "name": "b_Neck_04",
      "children": [
        0
      ],
      "matrix": [
        0.7504412531852722,
        0.5317620038986206,
        0.39251384139060974,
        0,
        -0.5781617760658264,
        0.8159221410751343,
        1.9981527543677657e-10,
        0,
        -0.3202607333660126,
        -0.2269364893436432,
        0.9197461009025574,
        0,
        25.64914321899414,
        0,
        0,
        1
      ]
    },
    {
      "name": "b_RightHand_08",
      "matrix": [
        0.801627516746521,
        0.5978164076805115,
        0.0029639843851327896,
        0,
        -0.5974961519241333,
        0.8013424277305603,
        -0.029130781069397926,
        0,
        -0.019790031015872955,
        0.02158106490969658,
        0.9995712041854858,
        0,
        19.350055694580078,
        -0.14598655700683594,
        0,
        1
      ]
    },
    {
      "name": "b_RightForeArm_07",
      "children": [
        2
      ],
      "matrix": [
        0.8486769795417786,
        0.5289115309715271,
        1.845109655340682e-11,
        0,
        -0.5289115309715271,
        0.8486769795417786,
        7.545836666622563e-8,
        0,
        3.9895137859957686e-8,
        -6.404953722949358e-8,
        1,
        0,
        23.04512596130371,
        0,
        0,
        1
      ]
    },
    {
      "name": "b_RightUpperArm_06",
      "children": [
        3
      ],
      "matrix": [
        -0.1955413818359375,
        -0.980695366859436,
        -0.0003137991589028388,
        0,
        0.9806946516036987,
        -0.1955416202545166,
        0.0012293895706534386,
        0,
        -0.0012670174473896623,
        -0.00006734461203450337,
        0.9999991655349731,
        0,
        18.677913665771484,
        -4.297340393066406,
        6.9675750732421875,
        1
      ]
    },
    {
      "name": "b_LeftHand_011",
      "matrix": [
        0.8022777438163757,
        0.5969319343566895,
        -0.004750753752887249,
        0,
        -0.5964939594268799,
        0.8019496202468872,
        0.03273541107773781,
        0,
        0.023350683972239494,
        -0.02342909201979637,
        0.9994527697563171,
        0,
        19.350051879882812,
        -0.14599037170410156,
        0,
        1
      ]
    },
    {
      "name": "b_LeftForeArm_010",
      "children": [
        5
      ],
      "matrix": [
        0.8487479090690613,
        0.5287976264953613,
        -8.220818990822831e-12,
        0,
        -0.5287976264953613,
        0.8487479090690613,
        7.546281466375149e-8,
        0,
        3.991153718629903e-8,
        -6.404456343034326e-8,
        1,
        0,
        23.045124053955078,
        0,
        0,
        1
      ]
    },
    {
      "name": "b_LeftUpperArm_09",
      "children": [
        6
      ],
      "matrix": [
        -0.19509285688400269,
        -0.9807848334312439,
        0.00018446252215653658,
        0,
        0.9807848334312439,
        -0.1950928419828415,
        0.00005656338180415332,
        0,
        -0.000019489194528432563,
        0.00019195314962416887,
        1,
        0,
        18.67791748046875,
        -4.297344207763672,
        -6.967987060546875,
        1
      ]
    },
    {
      "name": "b_Spine02_03",
      "children": [
        1,
        4,
        7
      ],
      "matrix": [
        0.9987092614173889,
        0.050791360437870026,
        1.0067750940648962e-13,
        0,
        -0.050791360437870026,
        0.9987092614173889,
        9.38537354500113e-8,
        0,
        4.76685979577951e-9,
        -9.373260212441892e-8,
        1,
        0,
        21.65575408935547,
        -0.000118255615234375,
        0,
        1
      ]
    },
    {
      "name": "b_Spine01_02",
      "children": [
        8
      ],
      "matrix": [
        0.3028184175491333,
        -0.9530482292175293,
        2.495360718057782e-7,
        0,
        0.9530482292175293,
        0.3028184175491333,
        1.2201847710002767e-7,
        0,
        -1.9185361566087522e-7,
        2.008705024536539e-7,
        1,
        0,
        12.850601196289062,
        0,
        0,
        1
      ]
    },
    {
      "name": "b_Tail03_014",
      "matrix": [
        0.9886495471000671,
        -0.09636662900447845,
        0.11526291072368622,
        0,
        0.09697221219539642,
        0.9952870011329651,
        0.00035498806391842663,
        0,
        -0.11475388705730438,
        0.01082634087651968,
        0.993334949016571,
        0,
        24.24032211303711,
        0,
        0,
        1
      ]
    },
    {
      "name": "b_Tail02_013",
      "children": [
        10
      ],
      "matrix": [
        0.9842595458030701,
        -0.13381507992744446,
        0.11544124037027359,
        0,
        0.1347160041332245,
        0.9908842444419861,
        -0.0000021743762772530317,
        0,
        -0.1143886148929596,
        0.015553922392427921,
        0.9933143258094788,
        0,
        12.411918640136719,
        0,
        0,
        1
      ]
    },
    {
      "name": "b_Tail01_012",
      "children": [
        11
      ],
      "matrix": [
        -0.9220178723335266,
        0.3695248067378998,
        0.11547455191612244,
        0,
        -0.3720133602619171,
        -0.9282273054122925,
        5.304222554514126e-7,
        0,
        0.10718683153390884,
        -0.04295758903026581,
        0.9933104515075684,
        0,
        4.2603759765625,
        15.958770751953125,
        0,
        1
      ]
    },
    {
      "name": "b_LeftFoot02_018",
      "matrix": [
        0.4009510278701782,
        0.916099488735199,
        0,
        0,
        -0.916099488735199,
        0.4009510278701782,
        0,
        0,
        0,
        0,
        1,
        0,
        15.779938697814941,
        0,
        0,
        1
      ]
    },
    {
      "name": "b_LeftFoot01_017",
      "children": [
        13
      ],
      "matrix": [
        0.4517294466495514,
        0.8921550512313843,
        0.0000027210533062316244,
        0,
        -0.8921550512313843,
        0.4517294466495514,
        0.000003766868076127139,
        0,
        0.0000021314501736924285,
        -0.000004129206899960991,
        1,
        0,
        17.942811965942383,
        0,
        0,
        1
      ]
    },
    {
      "name": "b_LeftLeg02_016",
      "children": [
        14
      ],
      "matrix": [
        0.5746361017227173,
        -0.8184090256690979,
        -3.765460832028111e-8,
        0,
        0.8184090256690979,
        0.5746361017227173,
        2.46599182046614e-13,
        0,
        2.1637495351001235e-8,
        -3.0817012941497524e-8,
        1,
        0,
        18.944175720214844,
        0,
        0,
        1
      ]
    },
    {
      "name": "b_LeftLeg01_015",
      "children": [
        15
      ],
      "matrix": [
        -0.8548709154129028,
        -0.5188406109809875,
        -0.0000017013907154250774,
        0,
        0.5188406109809875,
        -0.8548709154129028,
        -0.000002711577053560177,
        0,
        -4.7593086804909035e-8,
        -0.0000032007992558646947,
        1,
        0,
        4.813770294189453,
        5.154018402099609,
        -6.968006134033203,
        1
      ]
    },
    {
      "name": "b_RightFoot02_022",
      "matrix": [
        0.4009510278701782,
        0.916099488735199,
        0,
        0,
        -0.916099488735199,
        0.4009510278701782,
        0,
        0,
        0,
        0,
        1,
        0,
        15.779935836791992,
        0,
        0,
        1
      ]
    },
    {
      "name": "b_RightFoot01_021",
      "children": [
        17
      ],
      "matrix": [
        0.45172855257987976,
        0.8921554684638977,
        0.00003738504892680794,
        0,
        -0.8921554088592529,
        0.4517285227775574,
        -0.00032431521685793996,
        0,
        -0.00030622747726738453,
        0.00011314918083371595,
        0.9999999403953552,
        0,
        17.94281005859375,
        0,
        0,
        1
      ]
    },
    {
      "name": "b_RightLeg02_020",
      "children": [
        18
      ],
      "matrix": [
        0.5746367573738098,
        -0.8184086084365845,
        -3.76525655099158e-8,
        0,
        0.8184086084365845,
        0.5746367573738098,
        9.095820450999437e-12,
        0,
        2.162910206493507e-8,
        -3.082040933577446e-8,
        1,
        0,
        18.944183349609375,
        0,
        0,
        1
      ]
    },
    {
      "name": "b_RightLeg01_019",
      "children": [
        19
      ],
      "matrix": [
        -0.8548716306686401,
        -0.5188394784927368,
        -0.000028997708795941435,
        0,
        0.5188394784927368,
        -0.8548716306686401,
        -0.00005641565439873375,
        0,
        0.0000044813482418248896,
        -0.00006327329901978374,
        1,
        0,
        4.813777923583984,
        5.154026031494141,
        6.967563629150391,
        1
      ]
    },
    {
      "name": "b_Hip_01",
      "children": [
        9,
        12,
        16,
        20
      ],
      "matrix": [
        -1.1582296011170001e-8,
        -0.3552265167236328,
        0.9347801804542542,
        0,
        -9.576526736054802e-7,
        0.9347802400588989,
        0.3552265167236328,
        0,
        -0.9999999403953552,
        -8.663211019666051e-7,
        -3.4646473068278283e-7,
        0,
        0.0000013006907693124958,
        24.551631927490234,
        41.03628921508789,
        1
      ]
    },
    {
      "name": "b_Root_00",
      "children": [
        21
      ],
      "matrix": [
        1,
        0,
        0,
        0,
        0,
        -0.000003674697609312716,
        -0.9999999403953552,
        0,
        0,
        0.9999999403953552,
        -0.000003674697609312716,
        0,
        0,
        0,
        0,
        1
      ]
    },
    {
      "name": "_rootJoint",
      "children": [
        22
      ]
    },
    {
      "name": "root",
      "children": [
        23
      ]
    },
    {
      "name": "fox",
      "mesh": 0
    }
  ],
  "meshes": [
    {
      "primitives": [
        {
          "material": 0,
          "mode": 4,
          "attributes": {
            "POSITION": 0,
            "TEXCOORD_0": 1,
            "JOINTS_0": 2,
            "WEIGHTS_0": 3
          }
        }
      ]
    }
  ],
  "materials": [
    {
      "name": "fox_material",
      "pbrMetallicRoughness": {
        "baseColorFactor": [
          1,
          1,
          1,
          1
        ],
        "metallicFactor": 0,
        "roughnessFactor": 0.58,
        "baseColorTexture": {
          "index": 0,
          "texCoord": 0
        }
      },
      "emissiveFactor": [
        0,
        0,
        0
      ],
      "alphaMode": "OPAQUE",
      "doubleSided": false
    }
  ],
  "textures": [
    {
      "sampler": 0,
      "name": "base",
      "source": 0
    }
  ],
  "samplers": [
    {
      "magFilter": 9729,
      "minFilter": 9987,
      "wrapS": 10497,
      "wrapT": 10497
    }
  ],
  "images": [
    {
      "uri": "data:image/jpeg;base64,",
      "mimeType": "image/jpeg"
    }
  ],
  "extensionsUsed": [
    "KHR_mesh_quantization"
  ],
  "extensionsRequired": [
    "KHR_mesh_quantization"
  ]
}